<svg viewBox="0 0 500 500" xmlns="http://www.w3.org/2000/svg">
  <defs></defs>
  <ellipse style="stroke: rgb(0, 0, 0); fill: rgb(60, 64, 67); paint-order: stroke; stroke-width: 0px;" cx="250" cy="250" rx="217.56" ry="217.56"></ellipse>
  <path d="M 378.337 340.591 L 355.689 340.591 L 355.689 182.766 C 355.689 169.908 345.544 159.409 333.04 159.409 L 280.197 159.416 L 280.197 189.607 L 325.492 189.607 L 325.492 370.788 L 378.337 370.788 C 382.524 370.788 385.885 367.426 385.885 363.664 L 385.885 348.99 C 385.885 343.941 382.537 340.591 378.337 340.591 Z M 246.367 129.689 L 155.777 153.161 C 148.606 154.933 144.31 161.184 144.31 168.319 L 144.31 340.591 L 121.663 340.591 C 117.476 340.591 114.115 343.954 114.115 347.717 L 114.115 362.391 C 114.115 367.438 117.476 370.788 121.663 370.788 L 265.098 370.788 L 265.098 144.845 C 265.098 134.701 255.897 127.212 246.367 129.689 Z M 223.578 265.099 C 217.326 265.099 212.255 258.319 212.255 250.425 C 212.255 242.112 217.326 235.751 223.578 235.751 C 229.829 235.751 234.902 241.697 234.902 250.001 C 234.902 258.305 229.853 265.099 223.578 265.099 Z" style="fill: rgb(255, 255, 255);"></path>
</svg>