<svg viewBox="0 0 576 512" xmlns="http://www.w3.org/2000/svg">
  <defs></defs>
  <g transform="matrix(1, 0, 0, 1, -10.482994, -142.783005)">
    <path fill="#00832d" d="M 322.25 398.783 L 357.538 439.118 L 404.989 469.442 L 413.262 399.031 L 404.989 330.193 L 356.628 356.835 L 322.25 398.783 Z" style=""></path>
    <path fill="#0066da" d="M 117.471 462.906 L 117.471 522.891 C 117.471 536.605 128.579 547.713 142.293 547.713 L 202.279 547.713 L 214.689 502.372 L 202.279 462.906 L 161.116 450.495 L 117.471 462.906 Z" style=""></path>
    <path fill="#e94235" d="M 202.279 249.853 L 117.471 334.661 L 161.116 347.071 L 202.279 334.661 L 214.482 295.732 L 202.279 249.853 Z" style=""></path>
    <path fill="#2684fc" d="M 202.279 334.661 L 117.471 334.661 L 117.471 462.906 L 202.279 462.906 L 202.279 334.661 Z" style=""></path>
    <path fill="#00ac47" d="M 459.182 285.762 L 404.989 330.193 L 404.989 469.442 L 459.431 514.08 C 467.58 520.45 479.495 514.638 479.495 504.275 L 479.495 295.36 C 479.495 284.873 467.311 279.122 459.182 285.762 Z M 322.25 398.783 L 322.25 462.906 L 202.279 462.906 L 202.279 547.713 L 380.167 547.713 C 393.881 547.713 404.989 536.605 404.989 522.891 L 404.989 469.442 L 322.25 398.783 Z" style=""></path>
    <path fill="#ffba00" d="M 380.167 249.853 L 202.279 249.853 L 202.279 334.661 L 322.25 334.661 L 322.25 398.783 L 404.989 330.234 L 404.989 274.675 C 404.989 260.961 393.881 249.853 380.167 249.853 Z" style=""></path>
  </g>
  <path d="M 468.864 435.092 L 454.39 435.092 L 454.39 334.226 C 454.39 326.009 447.906 319.299 439.915 319.299 L 406.143 319.303 L 406.143 338.598 L 435.091 338.598 L 435.091 454.391 L 468.864 454.391 C 471.54 454.391 473.688 452.242 473.688 449.838 L 473.688 440.46 C 473.688 437.233 471.548 435.092 468.864 435.092 Z M 384.522 300.305 L 326.626 315.306 C 322.043 316.438 319.298 320.433 319.298 324.993 L 319.298 435.092 L 304.824 435.092 C 302.148 435.092 300 437.241 300 439.646 L 300 449.024 C 300 452.25 302.148 454.391 304.824 454.391 L 396.493 454.391 L 396.493 309.991 C 396.493 303.508 390.613 298.722 384.522 300.305 Z M 369.958 386.845 C 365.962 386.845 362.721 382.512 362.721 377.467 C 362.721 372.154 365.962 368.089 369.958 368.089 C 373.953 368.089 377.195 371.889 377.195 377.196 C 377.195 382.503 373.968 386.845 369.958 386.845 Z" style=""></path>
</svg>